<?xml version="1.0" encoding="UTF-8" standalone="no"?>
<!DOCTYPE svg PUBLIC "-//W3C//DTD SVG 1.1//EN"
 "http://www.w3.org/Graphics/SVG/1.1/DTD/svg11.dtd">
<!-- Generated by graphviz version 2.48.0 (20210717.1556)
 -->
<!-- Pages: 1 -->
<svg width="228pt" height="300pt"
 viewBox="0.00 0.00 227.80 299.60" xmlns="http://www.w3.org/2000/svg" xmlns:xlink="http://www.w3.org/1999/xlink">
<g id="graph0" class="graph" transform="scale(1 1) rotate(0) translate(4 295.6)">
<polygon fill="white" stroke="transparent" points="-4,4 -4,-295.6 223.8,-295.6 223.8,4 -4,4"/>
<!-- 150 -->
<g id="node1" class="node">
<title>150</title>
<ellipse fill="black" stroke="black" cx="135" cy="-273.6" rx="27" ry="18"/>
<text text-anchor="middle" x="135" y="-269.9" font-family="Times New Roman,serif" font-size="14.00" fill="white">150</text>
</g>
<!-- 20 -->
<g id="node2" class="node">
<title>20</title>
<ellipse fill="tomato" stroke="tomato" cx="99" cy="-201.6" rx="27" ry="18"/>
<text text-anchor="middle" x="99" y="-197.9" font-family="Times New Roman,serif" font-size="14.00" fill="white">20</text>
</g>
<!-- 150&#45;&gt;20 -->
<g id="edge1" class="edge">
<title>150&#45;&gt;20</title>
<path fill="none" stroke="black" d="M126.65,-256.36C122.29,-247.88 116.85,-237.31 111.96,-227.8"/>
<polygon fill="black" stroke="black" points="114.99,-226.04 107.3,-218.75 108.77,-229.24 114.99,-226.04"/>
</g>
<!-- 200 -->
<g id="node11" class="node">
<title>200</title>
<ellipse fill="black" stroke="black" cx="171" cy="-201.6" rx="27" ry="18"/>
<text text-anchor="middle" x="171" y="-197.9" font-family="Times New Roman,serif" font-size="14.00" fill="white">200</text>
</g>
<!-- 150&#45;&gt;200 -->
<g id="edge10" class="edge">
<title>150&#45;&gt;200</title>
<path fill="none" stroke="black" d="M143.35,-256.36C147.71,-247.88 153.15,-237.31 158.04,-227.8"/>
<polygon fill="black" stroke="black" points="161.23,-229.24 162.7,-218.75 155.01,-226.04 161.23,-229.24"/>
</g>
<!-- 18 -->
<g id="node3" class="node">
<title>18</title>
<ellipse fill="black" stroke="black" cx="27" cy="-129.6" rx="27" ry="18"/>
<text text-anchor="middle" x="27" y="-125.9" font-family="Times New Roman,serif" font-size="14.00" fill="white">18</text>
</g>
<!-- 20&#45;&gt;18 -->
<g id="edge2" class="edge">
<title>20&#45;&gt;18</title>
<path fill="none" stroke="black" d="M84.43,-186.43C74.25,-176.54 60.48,-163.15 48.97,-151.96"/>
<polygon fill="black" stroke="black" points="51.41,-149.45 41.8,-144.98 46.53,-154.47 51.41,-149.45"/>
</g>
<!-- 25 -->
<g id="node6" class="node">
<title>25</title>
<ellipse fill="black" stroke="black" cx="99" cy="-129.6" rx="27" ry="18"/>
<text text-anchor="middle" x="99" y="-125.9" font-family="Times New Roman,serif" font-size="14.00" fill="white">25</text>
</g>
<!-- 20&#45;&gt;25 -->
<g id="edge5" class="edge">
<title>20&#45;&gt;25</title>
<path fill="none" stroke="black" d="M99,-183.3C99,-175.58 99,-166.31 99,-157.71"/>
<polygon fill="black" stroke="black" points="102.5,-157.7 99,-147.7 95.5,-157.7 102.5,-157.7"/>
</g>
<!-- null0 -->
<g id="node4" class="node">
<title>null0</title>
<ellipse fill="black" stroke="black" cx="19" cy="-57.6" rx="1.8" ry="1.8"/>
</g>
<!-- 18&#45;&gt;null0 -->
<g id="edge3" class="edge">
<title>18&#45;&gt;null0</title>
<path fill="none" stroke="black" d="M25.02,-111.3C23.53,-98.23 21.53,-80.71 20.25,-69.53"/>
<polygon fill="black" stroke="black" points="23.71,-68.95 19.09,-59.41 16.75,-69.74 23.71,-68.95"/>
</g>
<!-- null1 -->
<g id="node5" class="node">
<title>null1</title>
<ellipse fill="black" stroke="black" cx="41" cy="-57.6" rx="1.8" ry="1.8"/>
</g>
<!-- 18&#45;&gt;null1 -->
<g id="edge4" class="edge">
<title>18&#45;&gt;null1</title>
<path fill="none" stroke="black" d="M30.39,-111.65C33.03,-98.45 36.61,-80.53 38.87,-69.27"/>
<polygon fill="black" stroke="black" points="42.31,-69.91 40.84,-59.42 35.44,-68.54 42.31,-69.91"/>
</g>
<!-- null2 -->
<g id="node7" class="node">
<title>null2</title>
<ellipse fill="black" stroke="black" cx="70" cy="-57.6" rx="1.8" ry="1.8"/>
</g>
<!-- 25&#45;&gt;null2 -->
<g id="edge6" class="edge">
<title>25&#45;&gt;null2</title>
<path fill="none" stroke="black" d="M92.13,-112.01C86.6,-98.67 79.01,-80.35 74.31,-69"/>
<polygon fill="black" stroke="black" points="77.4,-67.32 70.34,-59.43 70.94,-70 77.4,-67.32"/>
</g>
<!-- 120 -->
<g id="node8" class="node">
<title>120</title>
<ellipse fill="tomato" stroke="tomato" cx="117" cy="-57.6" rx="27" ry="18"/>
<text text-anchor="middle" x="117" y="-53.9" font-family="Times New Roman,serif" font-size="14.00" fill="white">120</text>
</g>
<!-- 25&#45;&gt;120 -->
<g id="edge7" class="edge">
<title>25&#45;&gt;120</title>
<path fill="none" stroke="black" d="M103.36,-111.65C105.39,-103.74 107.86,-94.14 110.14,-85.29"/>
<polygon fill="black" stroke="black" points="113.58,-85.95 112.68,-75.39 106.8,-84.2 113.58,-85.95"/>
</g>
<!-- null3 -->
<g id="node9" class="node">
<title>null3</title>
<ellipse fill="black" stroke="black" cx="106" cy="-1.8" rx="1.8" ry="1.8"/>
</g>
<!-- 120&#45;&gt;null3 -->
<g id="edge8" class="edge">
<title>120&#45;&gt;null3</title>
<path fill="none" stroke="black" d="M113.52,-39.58C111.78,-31.07 109.73,-21.02 108.2,-13.58"/>
<polygon fill="black" stroke="black" points="111.62,-12.83 106.19,-3.73 104.77,-14.23 111.62,-12.83"/>
</g>
<!-- null4 -->
<g id="node10" class="node">
<title>null4</title>
<ellipse fill="black" stroke="black" cx="128" cy="-1.8" rx="1.8" ry="1.8"/>
</g>
<!-- 120&#45;&gt;null4 -->
<g id="edge9" class="edge">
<title>120&#45;&gt;null4</title>
<path fill="none" stroke="black" d="M120.48,-39.58C122.22,-31.07 124.27,-21.02 125.8,-13.58"/>
<polygon fill="black" stroke="black" points="129.23,-14.23 127.81,-3.73 122.38,-12.83 129.23,-14.23"/>
</g>
<!-- 180 -->
<g id="node12" class="node">
<title>180</title>
<ellipse fill="tomato" stroke="tomato" cx="171" cy="-129.6" rx="27" ry="18"/>
<text text-anchor="middle" x="171" y="-125.9" font-family="Times New Roman,serif" font-size="14.00" fill="white">180</text>
</g>
<!-- 200&#45;&gt;180 -->
<g id="edge11" class="edge">
<title>200&#45;&gt;180</title>
<path fill="none" stroke="black" d="M171,-183.3C171,-175.58 171,-166.31 171,-157.71"/>
<polygon fill="black" stroke="black" points="174.5,-157.7 171,-147.7 167.5,-157.7 174.5,-157.7"/>
</g>
<!-- null7 -->
<g id="node15" class="node">
<title>null7</title>
<ellipse fill="black" stroke="black" cx="218" cy="-129.6" rx="1.8" ry="1.8"/>
</g>
<!-- 200&#45;&gt;null7 -->
<g id="edge14" class="edge">
<title>200&#45;&gt;null7</title>
<path fill="none" stroke="black" d="M181.8,-184.89C189,-174.38 198.64,-160.21 207,-147.6 208.58,-145.22 210.26,-142.64 211.83,-140.22"/>
<polygon fill="black" stroke="black" points="214.95,-141.83 217.41,-131.53 209.06,-138.05 214.95,-141.83"/>
</g>
<!-- null5 -->
<g id="node13" class="node">
<title>null5</title>
<ellipse fill="black" stroke="black" cx="167" cy="-57.6" rx="1.8" ry="1.8"/>
</g>
<!-- 180&#45;&gt;null5 -->
<g id="edge12" class="edge">
<title>180&#45;&gt;null5</title>
<path fill="none" stroke="black" d="M170.01,-111.3C169.26,-98.23 168.26,-80.71 167.62,-69.53"/>
<polygon fill="black" stroke="black" points="171.11,-69.19 167.05,-59.41 164.12,-69.59 171.11,-69.19"/>
</g>
<!-- null6 -->
<g id="node14" class="node">
<title>null6</title>
<ellipse fill="black" stroke="black" cx="189" cy="-57.6" rx="1.8" ry="1.8"/>
</g>
<!-- 180&#45;&gt;null6 -->
<g id="edge13" class="edge">
<title>180&#45;&gt;null6</title>
<path fill="none" stroke="black" d="M175.36,-111.65C178.75,-98.45 183.36,-80.53 186.26,-69.27"/>
<polygon fill="black" stroke="black" points="189.69,-69.97 188.79,-59.42 182.91,-68.23 189.69,-69.97"/>
</g>
</g>
</svg>
